<svg xmlns="http://www.w3.org/2000/svg" height="800" width="1200" xml:space="preserve" y="0" x="0" id="Layer_1" version="1.1" viewBox="-5.385 -2.675 46.67 16.05"><style id="style5001" type="text/css">.st0{fill:#b5121b}</style><g transform="translate(-1.4 -1.1)" id="g5015"><path id="polygon5003" class="st0" d="M7.3 1.5v-.4h4v.4h-1.2v9.6h1.2v.4h-4v-.4h1.3V6.4H4.1v4.7h1.2v.4H1.4v-.4h1.2V1.5H1.4v-.4h3.9v.4H4.1v4.4h4.5V1.5z"/><path id="path5005" d="M11.7 11.5v-.4h1.2V4.8h-1.2v-.4h.6c.7 0 1.4 0 2-.2v6.9h1.1v.4z" class="st0"/><path id="path5007" d="M16.9 4.8h-1v-.4h1.4c.3 0 .7-.1 1-.1v1.9c.5-1.1 1.2-1.9 2.5-1.9.8-.1 2.2 0 2.2 1.7v5.1h1v.4h-3.3v-.4h.9V6.2c0-1.3-.4-1.5-1.1-1.5-1.2 0-2.2 1.7-2.2 3V11h1v.4H16V11h1V4.8z" class="st0"/><path id="path5009" d="M30.5 9.3c-.3 1.2-1.5 2.1-2.5 2.1-2 0-2.2-1.4-2.2-3.2v-.8H31c0-2-1.4-3.2-3.2-3.2-2.1 0-3.5 1.9-3.5 4.1 0 2 1.8 3.5 3.6 3.5 1.6 0 2.8-.8 3.2-2.5zm-4.6-2.4c0-.4.1-.9.2-1.2 0-.1.5-1.1 1.6-1.1.9 0 1.7.4 1.7 1.7v.6z" class="st0"/><path id="path5011" d="M36.6 4.4v2h-.4c-.3-1-.9-1.8-2-1.8-1.5 0-1.7 1.1-1.7 1.3 0 .5.1.8 2.9 1.3 1.4.3 1.9.9 1.9 2.1 0 1.5-1.2 2.5-2.6 2.5-.8 0-1.5-.3-2.1-.9l-.4.6h-.4V9.1h.4c.3 1.3 1.2 2.2 2.6 2.2.8 0 1.7-.6 1.7-1.5 0-.7-1-1-2.5-1.4-1.2-.3-2.2-.5-2.2-2 0-.8.5-2.2 2.4-2.2.6 0 1.1.2 1.7.7l.3-.5z" class="st0"/><path id="rect5013" class="st0" d="M12.9 1.1h1.5v1.5h-1.5z"/></g></svg>